<svg width="270" height="48" viewBox="0 0 270 48" fill="none" xmlns="http://www.w3.org/2000/svg">
<path d="M31.8883 36.8373C31.7985 36.2671 31.5409 35.7366 31.1483 35.3134C30.6849 34.8806 30.9818 36.6389 30.1999 36.4605C29.7218 34.7045 29.5008 32.8919 28.9568 31.1536L28.1246 30.2734C27.9278 33.855 29.5121 37.3972 25.3386 38.6722C22.7859 38.9844 22.216 41.6682 21.0135 46.5889C22.0259 43.9698 22.2563 43.7044 22.7113 42.3056C24.783 37.6409 28.9415 39.771 30.5288 43.5273C32.9343 49.3419 32.2419 38.6642 31.8857 36.8363" fill="white"/>
<path d="M13.275 37.6287C12.7264 36.0858 12.024 33.4623 11.966 31.6641L11.1375 32.7543C11.1553 32.802 11.1633 32.8528 11.1608 32.9037C11.1608 32.963 11.1531 33.0179 11.1484 33.0748H11.1501C11.1489 33.0809 11.148 33.087 11.1474 33.0931C11.1376 33.2163 11.1192 33.3387 11.0922 33.4593C10.9805 34.2867 10.9556 35.1234 11.018 35.956C11.0759 36.7512 10.1594 35.5781 10.1524 35.3794C9.72331 36.6281 8.99793 38.4293 9.01291 39.1524C9.05152 41.0268 8.7133 43.0421 8.96264 44.878C8.97928 44.9163 8.99593 44.9546 9.01324 44.9925C10.5742 44.0102 11.8302 40.2825 13.9604 41.0042C16.8234 42.5568 17.9552 41.0808 20.3567 44.8045C19.0415 40.2918 16.9006 41.4822 13.275 37.6287Z" fill="white"/>
<path d="M21.6091 39.5004C22.1001 38.9352 22.6723 38.446 23.3069 38.0487C23.8736 37.6756 24.5159 37.4326 25.1877 37.3373C25.3166 37.3151 25.4387 37.2637 25.5447 37.187C25.6506 37.1103 25.7376 37.0104 25.7989 36.8949C26.2484 36.1958 26.1651 35.2611 26.6542 34.61C27.7431 33.1559 27.4078 27.642 27.064 28.3051C25.9694 29.4099 23.7167 29.8141 22.2183 30.5537C21.8455 30.7375 21.7755 31.5254 21.448 31.7042C20.9172 31.9775 20.4124 32.2984 19.9396 32.6629C19.5594 34.7721 20.699 34.3886 20.5089 35.1556C20.2482 36.2088 18.2185 36.104 18.6749 36.4062C19.6955 37.0697 20.4183 38.1037 20.691 39.29C20.7476 39.5184 20.7069 39.8596 20.9949 39.9179C21.2705 39.9731 21.447 39.6875 21.6091 39.5004Z" fill="white"/>
<path d="M17.0118 22.3248C17.1832 22.8438 17.9106 22.8222 18.1679 22.7576C18.4412 22.6826 18.7206 22.6319 19.0028 22.6061C19.0028 22.6061 18.5318 22.1521 18.2751 21.8498C18.0184 21.5476 17.3117 20.5312 17.3117 20.5312C17.3117 20.5312 17.0547 20.6394 16.9905 20.7906C16.9475 20.942 17.2471 21.1364 17.1619 21.3958C17.0976 21.6767 16.8193 21.8282 17.0118 22.3248Z" fill="white"/>
<path d="M13.3296 5.85963C12.6415 5.97681 11.8691 6.94818 11.3062 7.99011C11.1661 8.56401 11.4976 9.34863 11.0845 9.819C10.9147 10.533 10.5186 10.9298 11.0905 10.579C11.2266 11.3539 9.71063 13.2444 11.0369 11.5969C11.4267 11.4368 11.481 11.9328 11.3961 12.7404C11.1951 12.7377 10.9961 12.7808 10.8143 12.8665C10.6325 12.9523 10.4726 13.0783 10.3468 13.2351C10.3158 13.2684 10.2909 13.2967 10.2626 13.3276L10.0339 13.8463C10.4403 13.6286 10.8495 13.4158 11.2526 13.1931C11.204 14.3187 11.0096 15.4332 10.6744 16.5087C10.5246 17.049 10.9503 17.6608 11.0143 18.2224C11.1644 19.5207 11.193 19.2687 11.8352 20.3496C12.7849 20.7334 14.9561 20.3562 15.8553 19.3842C16.4115 18.779 17.7817 18.5413 17.7817 18.5413C17.4821 18.8223 17.1512 19.8506 17.5847 20.4597C17.7275 20.6595 17.9585 20.268 18.3443 20.268C18.5501 20.2538 18.7567 20.2803 18.9522 20.3461C19.1477 20.4119 19.3282 20.5157 19.4835 20.6515C20.0534 21.035 20.4333 20.8432 20.6234 20.6515C20.8161 20.5436 20.9719 20.1854 21.4223 20.1189C22.1507 19.989 22.45 20.2916 22.3431 20.3998C22.1765 20.5682 21.9576 20.6748 21.7223 20.7021C21.5312 20.7409 21.3383 20.7698 21.1443 20.7886C21.0802 21.091 21.0432 21.3985 21.0338 21.7074C21.0338 22.1182 21.2515 22.2587 21.2728 22.4747C21.2728 22.7124 21.3371 22.7773 21.6151 22.7773C21.893 22.7773 22.4074 22.734 22.5139 22.8439C22.6204 22.9537 22.4283 23.0599 23.0918 23.0383C23.8412 23.0166 23.948 22.9301 23.9267 22.4547C23.9267 21.6119 23.9697 20.6608 23.3055 20.0556C23.0059 19.7743 22.7279 20.0556 22.663 20.034C22.6267 19.9076 22.6123 19.776 22.6204 19.6448V19.6232C22.6233 19.4338 22.6018 19.2448 22.5565 19.0609C22.5199 18.9093 22.4621 18.7636 22.3847 18.6282C22.3847 18.6282 22.3208 18.498 22.5136 18.5616C22.7063 18.6478 23.4124 19.0586 23.712 19.1668C24.5256 19.3828 25.6604 19.7717 26.1315 20.2906C27.0736 21.1561 26.6025 22.1062 26.3242 22.3442C26.0246 22.6035 25.5965 22.3226 25.4461 22.2796C25.2749 22.2131 24.9111 22.3226 25.0393 22.6252C25.4031 23.4464 25.5532 23.3169 25.7247 24.2463C25.8745 25.0453 25.7673 26.516 25.6388 26.6241C25.5103 26.7323 25.5103 26.2134 25.2107 25.2843C25.078 24.859 24.8427 24.473 24.5256 24.1601C24.4858 24.137 24.4498 24.1079 24.4187 24.0739C24.3604 24.0061 24.2881 23.9516 24.2068 23.9143C24.1255 23.8769 24.0371 23.8576 23.9477 23.8575C23.8189 23.8792 23.8408 24.0739 23.6481 24.0739C23.4766 24.0739 23.0489 24.0955 22.92 24.0739C22.901 23.9984 22.8722 23.9256 22.8345 23.8575C22.8323 23.8048 22.812 23.7545 22.777 23.7151C22.742 23.6757 22.6944 23.6495 22.6424 23.6411C22.4496 23.5546 20.0737 23.6411 19.3244 23.7926C19.1956 23.8355 19.1103 23.8572 19.0248 23.8788C18.7252 24.0086 18.7035 24.245 18.6393 24.268C18.1174 24.2955 17.5942 24.2812 17.0747 24.225C16.8598 24.1281 16.625 24.0836 16.3896 24.0952C16.1326 24.1168 15.5976 24.2031 15.3835 23.7493C15.2685 23.4386 15.239 23.1027 15.298 22.7766C15.298 22.7766 14.2916 23.987 14.8053 24.765C15.3406 25.5433 15.8626 25.5862 16.1409 26.7536C16.4621 28.0286 17.6722 29.6008 19.1902 29.5356C20.4749 29.471 20.5218 29.0006 21.4127 29.3282C23.5013 30.0938 25.2077 27.8635 25.3369 27.8412C25.782 27.8781 26.225 27.7475 26.5789 27.475C26.902 27.1847 27.1644 26.8333 27.3509 26.4411C27.9921 25.0499 28.564 23.5732 28.6565 22.1072C29.5127 21.2647 29.8769 19.5773 29.813 18.8652C29.7751 18.4123 29.7679 17.9573 29.7917 17.5034C29.9841 17.3303 30.5407 18.1735 30.6479 18.5406C30.6647 18.4263 30.6717 18.3107 30.6689 18.1951C30.6479 17.8492 30.4552 17.5899 30.4552 17.2221C30.4761 16.7893 29.9412 16.7467 29.6625 16.7683C29.4275 16.8546 29.3203 16.6385 29.4059 16.4658C29.6416 15.8606 29.2774 15.558 29.5344 14.9528C29.6066 14.7341 28.7204 13.0713 28.4405 12.0497C28.7846 12.5383 29.1958 12.9761 29.6619 13.3503C29.4368 12.9358 29.2717 12.4915 29.1715 12.0307C29.1715 11.573 29.5547 11.838 29.8593 12.1093C28.9441 10.9708 27.7331 8.87626 29.9495 10.4285C28.4182 8.27773 27.8 5.66123 25.0646 4.67322C24.5073 4.09034 25.6385 4.21051 25.9158 4.47116C32.3896 7.38359 28.4555 1.9532 24.496 4.2448C22.8065 4.82669 21.0265 4.24014 19.7066 5.67621C17.5747 5.26277 15.4321 6.16456 13.3296 5.85963Z" fill="white"/>
<path d="M11.3641 5.33776C11.4622 5.12912 11.609 4.94712 11.7921 4.80709C11.9753 4.66707 12.1894 4.57312 12.4164 4.53317C12.5717 4.49866 12.7287 4.47276 12.8868 4.4556C11.0559 3.72825 14.281 3.05049 15.1399 3.04416C16.7711 2.49923 18.9246 3.9646 20.2665 3.45428C20.0278 3.12539 19.4342 2.4666 20.112 2.26055C21.9693 3.07312 22.3441 2.13638 23.8704 2.39836C24.717 2.49823 23.3272 1.75822 21.9836 1.09611C21.5504 0.9969 21.1108 0.927937 20.668 0.889716C20.5425 0.879064 20.5095 0.670011 20.5661 0.566816C20.1911 0.535198 19.8193 0.472059 19.4549 0.378069C19.4272 0.365122 19.4038 0.344497 19.3876 0.318648C19.3713 0.292799 19.3627 0.262815 19.363 0.232264C17.5495 0.14288 15.7416 0.497935 14.0966 1.26654C13.0871 1.76066 12.113 2.3238 11.181 2.95195C11.2073 3.59143 10.4533 4.2602 10.0192 4.6863C9.57015 5.53249 9.0961 6.71857 9.23692 7.66763C9.75678 6.73714 10.485 5.93959 11.3645 5.33742" fill="white"/>
<path fill-rule="evenodd" clip-rule="evenodd" d="M39.9747 38.8728C39.1981 37.4634 37.2599 37.4444 35.9333 36.8406C34.2645 36.298 32.651 35.3472 31.1033 34.4874C30.777 34.2657 30.5293 33.9462 30.3959 33.5749C30.0071 32.6488 29.9685 31.4701 28.9575 31.1558C29.5011 32.8939 29.7231 34.7064 30.2008 36.4634C30.9815 36.6418 30.6859 34.8839 31.1489 35.3159C31.5417 35.7391 31.7994 36.2698 31.889 36.8402C32.2448 38.6671 32.9373 49.3461 30.5321 43.5313C28.9455 39.7746 24.7866 37.6441 22.7146 42.3096C22.2586 43.7077 22.0282 43.974 21.0169 46.5932C22.2193 41.6727 22.7889 38.9877 25.3419 38.6754C29.5154 37.4005 27.9315 33.8572 28.1282 30.276L27.7667 27.9831L27.6232 27.4561L27.6668 27.3499L27.5899 26.8619L27.6305 26.7534C28.2771 25.4953 28.7796 24.1682 29.1286 22.7974L29.2784 22.2351C29.3213 22.2581 29.3589 22.2754 29.3952 22.2914C29.7018 22.4245 29.7867 22.3247 29.9205 22.1706C30.0569 21.676 30.2286 21.1918 30.4342 20.7218C30.7956 19.9966 31.02 19.2109 31.0963 18.4043C31.099 18.326 31.102 18.2471 31.0963 18.1712V18.0091C31.0963 17.607 31.0987 17.327 31.1176 16.8107C31.1386 16.3667 31.0131 15.9056 30.4262 16.0275C30.4132 16.0301 30.4032 16.0291 30.3899 16.0324L30.4542 15.5138C30.5021 15.0145 30.5564 14.4819 30.592 13.9522C30.4941 13.9023 30.3986 13.8487 30.3047 13.7928C30.3759 13.7573 30.4363 13.7033 30.4794 13.6365C30.5226 13.5697 30.547 13.4925 30.5501 13.413C30.5354 13.1651 30.4845 12.9207 30.3989 12.6876C30.4988 12.7645 30.5654 12.7831 30.5767 12.7179C30.5634 12.5708 30.5557 12.423 30.5514 12.2741L30.5294 12.0465L30.5487 11.862C30.5647 10.9632 30.7055 10.0408 30.8104 9.13569V6.25621C30.8087 6.24856 30.8074 6.24057 30.8057 6.23291C30.6626 5.51387 30.3147 4.8515 29.804 4.32547C28.8826 3.27754 27.3509 3.41902 26.6335 2.19865C25.0536 0.588808 22.666 0.412711 20.5315 0.181354C20.1878 0.152742 19.8474 0.0938136 19.5141 0.00525702C19.4309 -0.0203753 19.381 0.0515284 19.366 0.138412C19.35 0.234283 19.3777 0.348464 19.4569 0.371433C19.8213 0.465421 20.1931 0.52845 20.5681 0.559847C20.5118 0.663042 20.5448 0.872428 20.67 0.883081C21.1128 0.921302 21.5524 0.990265 21.9856 1.08947C23.3275 1.75192 24.7173 2.49359 23.8705 2.39173C22.3441 2.13008 21.9689 3.06682 20.112 2.25358C19.4353 2.45963 20.0278 3.11908 20.2665 3.44764C18.9259 3.96129 16.7731 2.49659 15.1409 3.03986C14.2823 3.04585 11.0582 3.72394 12.8878 4.4513C12.7297 4.46848 12.5727 4.49438 12.4174 4.52886C12.1903 4.56882 11.9762 4.66281 11.793 4.8029C11.6099 4.94299 11.4631 5.12507 11.3651 5.33378C10.4856 5.93586 9.75737 6.73343 9.23759 7.66399C9.09677 6.71493 9.57049 5.52885 10.0199 4.68266C10.4833 4.22727 11.3112 3.49591 11.1654 2.81849C11.1654 2.81549 11.1654 2.81216 11.1654 2.80917C11.1537 2.78586 11.1321 2.77022 11.1258 2.74259C11.1232 2.72555 11.1193 2.70874 11.1141 2.69232V2.68833C11.1118 2.684 11.1091 2.67668 11.1075 2.67435C11.1035 2.6668 11.0992 2.65946 11.0945 2.65238C11.0835 2.64239 11.0845 2.64106 11.0895 2.64572C11.0828 2.6384 11.0765 2.63074 11.0695 2.62408H11.0679L10.9856 2.66303C10.968 2.67267 10.9545 2.68859 10.948 2.70764C9.78295 3.61515 8.85946 4.79574 8.2592 6.14503C7.39366 8.86738 8.74823 11.4146 9.11009 14.2492C9.23392 14.1636 9.33246 14.097 9.42201 14.0375L9.34511 14.2275C9.26821 14.2718 9.19032 14.3147 9.11475 14.3607C9.23602 14.9471 9.3139 15.5417 9.34778 16.1396C8.87673 16.2259 8.79117 16.2475 8.81248 16.7232C8.85509 17.3503 9.21961 17.9985 9.26222 18.7768C9.31804 19.6135 9.54391 20.4301 9.92602 21.1766C10.2469 21.7385 10.44 22.6033 10.8248 23.079C11.0605 23.4029 11.2959 23.36 11.6384 23.3383C12.1092 24.549 12.0802 25.1865 12.7224 26.3323L13.1025 26.7651V29.9771C13.0469 30.5373 12.3142 30.574 11.9627 31.3196C11.9607 31.4301 11.9627 31.5457 11.9657 31.6642C12.0239 33.4618 12.7264 36.0866 13.275 37.6295C16.9006 41.4827 19.0414 40.2926 20.358 44.8046C17.9552 41.0805 16.825 42.5569 13.9617 41.0037C11.8312 40.282 10.5755 44.0099 9.01455 44.9926C9.00256 45.0003 8.99091 45.0089 8.97893 45.0159C8.97227 44.9707 8.96994 44.9237 8.96361 44.8778C8.71527 43.0422 9.05283 41.0266 9.01421 39.1521C8.99923 38.4291 9.72462 36.6275 10.1537 35.3789C10.1594 35.5786 11.0762 36.751 11.0193 35.9554C10.957 35.1229 10.9818 34.2861 11.0932 33.4588C11.1204 33.3382 11.1389 33.2158 11.1484 33.0926C11.1484 33.0866 11.1501 33.0806 11.1511 33.0743C11.1557 33.0177 11.1617 32.9624 11.1634 32.9032C11.1659 32.8522 11.158 32.8012 11.1401 32.7534C11.0069 32.4185 10.2905 33.0593 10.2722 33.1911C10.0312 33.794 9.05083 34.0486 8.52785 34.1688C8.2349 34.2354 8.11539 34.6172 8.14169 34.9484C7.65266 35.1086 7.10404 35.3163 7.02748 35.3462C4.24711 36.4228 2.27869 38.4128 0 39.755C0.379837 40.9058 4.08932 38.8935 5.94656 38.2503C6.37733 38.1012 7.24486 37.5916 7.51784 38.2267C7.59979 38.4891 7.60865 38.7689 7.54347 39.036C7.26377 41.0384 7.42742 43.0778 8.02284 45.0099C8.09935 45.3198 8.24034 45.6101 8.43664 45.8618C9.56183 47.1364 11.7466 45.0093 12.7047 44.4034C13.3659 43.9853 14.1498 43.6711 14.9155 43.8219C15.3479 43.9328 15.7586 44.1158 16.1302 44.3631C17.2621 45.0289 18.5474 44.0952 19.3693 45.1238C19.6297 45.4497 19.7272 47.4307 20.0351 47.7103C21.2918 48.8495 22.5032 46.3239 23.194 45.4021C23.7889 44.6072 24.3904 43.6378 25.2347 43.0852C25.9947 42.5859 26.76 42.6601 27.5533 43.0519C28.1499 43.3743 28.7045 43.7691 29.2045 44.2273C29.6998 44.6518 30.585 45.9497 31.1642 46.1121C33.112 46.6574 33.0168 42.4797 32.884 41.0889C33.0981 40.1954 31.7119 36.3619 33.0671 36.6871C33.4166 36.7973 33.7662 36.9201 34.1121 37.048C35.4437 37.5426 36.7676 38.1405 38.1278 38.5905C38.5962 38.757 40.2284 40.0592 39.9731 38.8712M16.1429 26.7531C15.8646 25.5856 15.3439 25.5427 14.8076 24.7644C14.294 23.9861 15.3 22.7757 15.3 22.7757C15.2412 23.1018 15.2707 23.4377 15.3855 23.7484C15.5996 24.2025 16.1346 24.1146 16.3916 24.0943C16.6271 24.0827 16.862 24.1272 17.077 24.2241C17.5959 24.2805 18.1184 24.2949 18.6396 24.2674C18.7039 24.2458 18.7252 24.0078 19.0251 23.8779C19.1107 23.8566 19.1962 23.835 19.3247 23.7917C20.0741 23.6403 22.4506 23.5537 22.6431 23.6403C22.7716 23.6619 22.8142 23.7481 22.8355 23.8566C22.8733 23.9247 22.9021 23.9973 22.9214 24.0727C23.0499 24.0943 23.4776 24.0727 23.6491 24.0727C23.8418 24.0727 23.8205 23.8779 23.9487 23.8566C24.0381 23.8567 24.1264 23.876 24.2076 23.9133C24.2889 23.9505 24.3611 24.0049 24.4194 24.0727C24.4505 24.1066 24.4865 24.1357 24.5263 24.1589C24.8434 24.4719 25.0788 24.8581 25.2117 25.2834C25.5113 26.2128 25.5113 26.7318 25.6398 26.6236C25.7683 26.5154 25.8752 25.0454 25.7254 24.2454C25.5539 23.316 25.4044 23.4465 25.0399 22.6239C24.9118 22.3214 25.2756 22.2132 25.4471 22.2781C25.5972 22.3214 26.025 22.6023 26.3249 22.3427C26.6035 22.105 27.0743 21.1539 26.1322 20.2891C25.6611 19.7704 24.5263 19.3813 23.713 19.1649C23.4134 19.0571 22.707 18.6459 22.5146 18.5597C22.3215 18.4951 22.3857 18.6263 22.3857 18.6263C22.4629 18.7618 22.5206 18.9075 22.5572 19.0591C22.6025 19.2428 22.624 19.4317 22.6211 19.621V19.6403C22.613 19.7716 22.6275 19.9034 22.664 20.0298C22.7283 20.0511 23.0063 19.7701 23.3065 20.0511C23.9703 20.6562 23.9274 21.6076 23.9274 22.4508C23.949 22.9262 23.8418 23.0128 23.0925 23.0344C22.4287 23.056 22.6214 22.9478 22.5149 22.8397C22.4084 22.7315 21.8937 22.7751 21.6161 22.7751C21.3384 22.7751 21.2735 22.7085 21.2735 22.4725C21.2522 22.2561 21.0345 22.116 21.0345 21.7052C21.0439 21.3961 21.0809 21.0885 21.145 20.7861C21.339 20.7672 21.5319 20.7385 21.7229 20.6999C21.9583 20.6723 22.1773 20.5656 22.3441 20.3973C22.451 20.2891 22.1514 19.9865 21.4233 20.1163C20.9739 20.1809 20.8178 20.5404 20.6244 20.6489C20.4346 20.841 20.0548 21.0327 19.4849 20.6489C19.3295 20.5132 19.1489 20.4094 18.9533 20.3436C18.7578 20.2778 18.5512 20.2512 18.3453 20.2654C17.9592 20.2654 17.7282 20.6572 17.5857 20.4572C17.1529 19.848 17.4835 18.8197 17.7831 18.5384C17.7831 18.5384 16.4125 18.7764 15.8563 19.3816C14.9574 20.3543 12.7859 20.7311 11.8365 20.347C11.194 19.2664 11.1654 19.5168 11.0156 18.2195C10.9513 17.6576 10.5256 17.0458 10.6754 16.5055C11.0107 15.4298 11.2052 14.3152 11.254 13.1896C10.8508 13.4123 10.4413 13.625 10.0352 13.8427L10.2632 13.3241C10.2912 13.2931 10.3162 13.2665 10.3471 13.2315C10.4731 13.0749 10.6331 12.9491 10.815 12.8636C10.9968 12.778 11.1958 12.735 11.3968 12.7379C11.4813 11.9306 11.4271 11.4346 11.0372 11.5944C9.71163 13.2419 11.227 11.3514 11.0908 10.5764C10.5189 10.9266 10.9151 10.5302 11.0852 9.81611C11.4983 9.34541 11.1664 8.56112 11.3065 7.98523C11.8698 6.94263 12.6421 5.97126 13.3299 5.85475C15.4325 6.16067 17.5747 5.25788 19.7089 5.671C21.0288 4.23492 22.8088 4.82214 24.498 4.23958C28.4575 1.94765 32.3916 7.37871 25.9181 4.46595C25.6405 4.2053 24.5093 4.08479 25.0669 4.66801C27.8023 5.65602 28.4198 8.27318 29.9515 10.424C27.7354 8.87138 28.9465 10.9662 29.8616 12.105C29.557 11.8337 29.1722 11.5688 29.1735 12.0265C29.2735 12.4882 29.4386 12.9334 29.6639 13.3487C29.1979 12.9745 28.7867 12.5367 28.4425 12.0481C28.7228 13.0697 29.6076 14.7325 29.5367 14.9516C29.2797 15.5568 29.6436 15.8593 29.4082 16.4645C29.3223 16.6376 29.4295 16.854 29.6649 16.7675C29.9432 16.7458 30.4785 16.7891 30.4572 17.2212C30.4572 17.5874 30.6499 17.8483 30.6709 18.1942C30.6738 18.3098 30.6667 18.4254 30.6499 18.5398C30.5427 18.1736 29.9861 17.3294 29.7937 17.5021C29.7699 17.9562 29.7771 18.4113 29.815 18.8643C29.8789 19.5777 29.5154 21.2641 28.6585 22.107C28.5663 23.5717 27.9927 25.05 27.3529 26.4412C27.1667 26.8337 26.9043 27.1853 26.5809 27.4754C26.2269 27.7478 25.784 27.8784 25.3389 27.8416C25.2104 27.8626 23.5026 30.0953 21.4153 29.3273C20.5225 28.9997 20.4776 29.4701 19.1929 29.535C17.6729 29.5996 16.4631 28.0277 16.1432 26.7524M16.9914 20.7861C17.0554 20.6346 17.3124 20.5268 17.3124 20.5268C17.3124 20.5268 18.0188 21.5427 18.2758 21.8453C18.5328 22.1479 19.0038 22.603 19.0038 22.603C18.7216 22.6287 18.4422 22.6794 18.1689 22.7544C17.9119 22.819 17.1842 22.8407 17.0128 22.3217C16.82 21.8244 17.0983 21.6729 17.1626 21.3919C17.2481 21.1326 16.9485 20.9379 16.9914 20.7867M20.6913 39.2879C20.4185 38.1015 19.6957 37.0673 18.6752 36.4035C18.2188 36.1012 20.2485 36.2061 20.5092 35.1528C20.6993 34.3872 19.5598 34.769 19.9396 32.6598C20.4125 32.2954 20.9175 31.9745 21.4483 31.7011C21.7759 31.5224 21.8458 30.7357 22.2186 30.5503C23.7167 29.8106 25.9694 29.4065 27.0643 28.3013C27.4082 27.6379 27.7434 33.1532 26.6545 34.6069C26.1665 35.2587 26.2483 36.1931 25.7993 36.8925C25.7378 37.0079 25.6508 37.1078 25.5449 37.1845C25.439 37.2612 25.3169 37.3126 25.1881 37.3349C24.5162 37.4301 23.8738 37.6732 23.3072 38.0466C22.6725 38.4437 22.1003 38.933 21.6094 39.4983C21.4466 39.6854 21.2705 39.971 20.9949 39.9158C20.7066 39.8578 20.7479 39.5163 20.6913 39.2879Z" fill="#222325"/>
<path fill-rule="evenodd" clip-rule="evenodd" d="M22.2592 25.6371C23.0089 24.9676 22.1524 25.1187 21.1453 25.0971C20.1383 25.0755 19.0031 25.1404 18.4892 25.0758C18.0786 25.0139 17.6765 24.9052 17.2907 24.7519C16.9269 24.644 17.6546 25.4646 17.9545 25.7023C18.2031 25.9427 18.4993 26.1284 18.824 26.2473C19.1486 26.3663 19.4947 26.4159 19.8397 26.393C21.0605 26.393 21.5105 26.3288 22.2602 25.6374" fill="#222325"/>
<path fill-rule="evenodd" clip-rule="evenodd" d="M18.1929 12.9267C17.6576 13.0995 17.379 12.7969 15.3656 12.7969C13.3522 12.7969 12.4098 14.0063 12.4098 14.0063C12.3058 14.1305 12.2387 14.2813 12.216 14.4416C12.1933 14.602 12.2159 14.7655 12.2813 14.9137C12.3452 15.1081 12.1311 15.6461 12.2383 15.6261C12.5379 15.5402 13.4807 14.2223 15.0014 14.0499C16.5434 13.8768 17.0577 14.201 17.0577 14.201C16.2713 14.1611 15.4848 14.2786 14.7444 14.5465C13.8101 14.9001 13.0447 15.5947 12.6022 16.4903C12.5596 16.6847 12.8166 16.7496 13.0736 16.7063C13.3306 16.6417 13.6305 16.0798 13.7161 16.0798C14.1269 16.0878 14.5371 16.0443 14.9371 15.9503C15.6226 15.7559 17.3576 15.8421 17.3576 15.8421C17.3576 15.8421 16.8223 15.972 16.3084 16.1447C15.6505 16.3681 14.9667 16.5061 14.2737 16.5552C13.6079 16.5552 13.7164 16.7712 13.7164 16.7712C13.7164 16.7712 15.7727 17.0518 17.358 16.4473C18.9432 15.8428 18.6859 14.2007 18.8144 13.7679C18.9432 13.3575 18.7292 12.7529 18.1932 12.926" fill="#222325"/>
<path fill-rule="evenodd" clip-rule="evenodd" d="M26.2833 15.1741C25.7909 14.699 24.9341 14.009 24.1195 13.9001C23.2842 13.7919 21.7635 14.3538 21.7635 14.3538C21.7833 14.2071 21.8411 14.0681 21.9312 13.9506C22.0213 13.8331 22.1406 13.7412 22.2772 13.6841C22.7699 13.4464 23.991 13.4464 24.462 13.5113C24.6335 13.5326 24.8908 13.5755 25.1691 13.5972H25.1904C25.9188 13.6837 26.6468 14.4177 26.9042 14.3961C27.1612 14.3532 27.0327 14.007 27.0327 14.007C26.9199 13.566 26.6905 13.1635 26.3685 12.8418C26.0902 12.6042 25.4697 12.5609 25.0193 12.5609C24.8265 12.5609 24.6554 12.5825 24.4623 12.5825C24.2408 12.5981 24.0183 12.5909 23.7982 12.5609C23.1632 12.4335 22.5108 12.4189 21.8707 12.5179C20.6923 12.7124 21.0994 14.5695 21.0994 14.5695C21.052 14.7578 21.079 14.9571 21.1747 15.1261C21.2704 15.295 21.4275 15.4205 21.6134 15.4767C22.0418 15.6065 21.5708 16.0382 22.0418 16.427C22.5349 16.8375 25.4041 16.6214 25.4041 16.6214C25.2272 16.4301 25.0257 16.2631 24.8049 16.1248C24.5479 15.9737 23.7979 16.0169 23.2839 15.952C22.9132 15.8963 22.5478 15.8096 22.1917 15.6927C22.3755 15.6608 22.5628 15.6535 22.7486 15.6711C23.1557 15.7143 24.205 15.8009 24.5905 15.6065C24.8072 15.5096 24.9768 15.3309 25.0622 15.1095C25.329 15.2314 25.5806 15.3839 25.8123 15.5639C26.1197 15.8242 26.488 16.0025 26.8828 16.0822C27.0117 16.0389 26.7976 15.6284 26.2836 15.1747" fill="#222325"/>
<path d="M131.886 18.0059C132.184 17.9804 132.484 18.0408 132.749 18.1807C132.838 18.2565 132.906 18.3534 132.949 18.462C132.992 18.5704 133.009 18.6877 132.996 18.8038C133.004 18.9168 132.989 19.0305 132.953 19.1377C132.917 19.245 132.859 19.3443 132.784 19.4288C132.702 19.5032 132.606 19.5604 132.501 19.5967C132.396 19.633 132.285 19.6474 132.175 19.6397C131.912 19.6332 131.653 19.5718 131.415 19.459C131.252 19.3736 131.077 19.3125 130.896 19.2774C130.732 19.284 130.572 19.3385 130.438 19.4346C130.27 19.5468 130.129 19.6958 130.027 19.8702C130.307 20.2018 130.524 20.5827 130.667 20.9932C130.808 21.4208 130.877 21.869 130.872 22.3194C130.872 23.6285 130.462 24.6388 129.642 25.3497C128.821 26.0605 127.655 26.4158 126.142 26.4161C126.078 26.4161 125.912 26.4127 125.646 26.4043C125.381 26.396 125.152 26.3916 124.959 26.3916C124.586 26.3675 124.214 26.4487 123.885 26.626C123.767 26.7015 123.672 26.8072 123.608 26.9317C123.545 27.0562 123.515 27.1954 123.522 27.335C123.522 28.1271 124.778 28.5721 127.288 28.669C127.594 28.6844 127.822 28.6974 127.977 28.7051C129.698 28.7699 130.934 29.0406 131.687 29.5176C132.056 29.7509 132.356 30.0797 132.555 30.4698C132.753 30.8599 132.843 31.2972 132.814 31.7344C132.814 32.971 132.199 33.9908 130.969 34.794C129.738 35.5972 128.145 35.9993 126.189 36C124.636 36 123.383 35.7297 122.43 35.1895C121.477 34.6493 121 33.9424 121 33.0684C120.992 32.4998 121.192 31.9477 121.562 31.5166C121.999 31.0316 122.56 30.6752 123.184 30.4864C122.743 30.3228 122.361 30.0316 122.086 29.6495C121.821 29.2318 121.696 28.74 121.729 28.2461C121.761 27.7523 121.95 27.2814 122.267 26.9024C122.686 26.4425 123.225 26.1095 123.823 25.9405C123.076 25.744 122.416 25.3022 121.947 24.6856C121.49 24.0505 121.255 23.2813 121.278 22.4981C121.259 21.9191 121.367 21.3427 121.596 20.8106C121.824 20.2785 122.167 19.803 122.6 19.419C123.557 18.5997 124.787 18.1753 126.044 18.2315C126.708 18.2229 127.37 18.3191 128.005 18.5166C128.551 18.6854 129.055 18.9682 129.483 19.3467L129.61 19.1963C129.91 18.8415 130.263 18.5337 130.655 18.2842C131.035 18.0886 131.459 17.9929 131.886 18.0059ZM123.824 30.961C123.419 31.1036 123.064 31.361 122.8 31.7012C122.56 32.0178 122.433 32.4053 122.438 32.8028C122.432 33.1547 122.524 33.5011 122.703 33.8038C122.882 34.1063 123.14 34.3536 123.45 34.5176C124.126 34.9247 125.076 35.129 126.299 35.1299C127.403 35.1765 128.501 34.941 129.49 34.4454C130.307 33.9874 130.716 33.4093 130.716 32.7051C130.716 31.8416 129.521 31.3447 127.132 31.2149C125.78 31.1425 124.677 31.0579 123.824 30.961ZM53.5488 12C56.5046 12 58.819 12.7999 60.4912 14.3995C62.1634 15.9993 62.9999 18.216 63 21.0489C63 23.9146 62.2073 26.1232 60.6221 27.6739C59.0368 29.2246 56.778 30 53.8457 30C53.3546 30 52.5937 29.9839 51.5635 29.9512C50.5334 29.9185 49.7526 29.9014 49.2217 29.9014C48.6591 29.9014 48.1119 29.9099 47.5811 29.9268C47.0502 29.9437 46.5232 29.9685 46 30V29.0215C46.88 29.0215 47.4365 28.9004 47.6699 28.6592C47.9033 28.418 48.0203 27.8361 48.0205 26.9141V15.0977C48.0205 14.1672 47.9035 13.588 47.6699 13.3594C47.4363 13.1308 46.8798 13.0085 46 12.9922V12C46.3491 12.024 46.7274 12.0421 47.1348 12.0547C47.5421 12.0674 48.1544 12.0737 48.9717 12.0733C49.4233 12.0733 50.1565 12.061 51.1709 12.0362C52.1853 12.0114 52.9782 11.9991 53.5488 12ZM71.8672 18.003C72.4383 17.9729 72.9985 18.1705 73.4238 18.5518C73.6164 18.7412 73.7673 18.9687 73.8662 19.2198C73.9651 19.4709 74.01 19.7403 73.998 20.0098C74.0181 20.3962 73.8946 20.7768 73.6514 21.0782C73.5378 21.2098 73.3959 21.3144 73.2363 21.3838C73.0768 21.4532 72.9034 21.4851 72.7295 21.4786C72.549 21.4909 72.3673 21.4661 72.1973 21.4043C72.0274 21.3427 71.8724 21.2461 71.7422 21.1211C71.4955 20.8284 71.3729 20.4507 71.4004 20.0694C71.4004 19.8696 71.4266 19.6705 71.4785 19.4776C71.5334 19.2741 71.6078 19.0763 71.7002 18.8868H71.6758C70.893 18.8868 70.2065 19.4184 69.6162 20.4815C68.9966 21.6652 68.691 22.9876 68.7295 24.3223V27.501C68.7295 28.2099 68.8637 28.6574 69.1309 28.8438C69.3984 29.03 70.1552 29.1409 71.4004 29.1749V30C70.4185 29.96 69.6059 29.93 68.9629 29.9102C68.3199 29.8904 67.7669 29.8809 67.3047 29.8809C67.0888 29.8809 66.7695 29.8892 66.3467 29.9043C65.9235 29.9195 65.1499 29.9522 64.0244 30V29.1749C64.9496 29.0949 65.5084 28.9749 65.7002 28.8155C65.8919 28.656 65.9873 28.2181 65.9873 27.502V20.6553C65.9873 20.0349 65.8841 19.6434 65.6768 19.4844C65.4692 19.3256 64.9099 19.2414 64 19.2334V18.3731C64.7824 18.3489 65.5564 18.3069 66.3223 18.2481C67.0881 18.1893 67.843 18.1077 68.5859 18.003V21.1446C68.8855 20.2747 69.3741 19.4812 70.0166 18.8213C70.2557 18.57 70.5427 18.368 70.8604 18.2276C71.1778 18.0872 71.52 18.011 71.8672 18.003ZM90.3506 12C92.3756 12 93.872 12.3609 94.8389 13.0831C95.8056 13.8052 96.2887 14.9222 96.2881 16.4327C96.3158 16.9968 96.2286 17.5605 96.0332 18.087C95.8378 18.6135 95.5385 19.091 95.1543 19.4874C94.399 20.2336 93.3077 20.6607 91.8818 20.7676V20.8409C93.557 20.9472 94.8289 21.388 95.6973 22.1631C96.5656 22.9382 96.9999 24.0195 97 25.4073C97 26.9995 96.4684 28.1635 95.4053 28.8985C94.3422 29.6334 92.642 30.0007 90.3047 30C89.7202 30 88.9698 29.9881 88.0547 29.9639C87.1397 29.9398 86.5183 29.927 86.1904 29.9268C85.7151 29.9268 85.2088 29.9327 84.6719 29.9444C84.1349 29.9561 83.5817 29.975 83.0127 30L83.001 29.0215C83.8654 29.0215 84.4125 28.9004 84.6426 28.6592C84.8727 28.418 84.9875 27.8362 84.9873 26.9141V14.8526C84.9873 14.0131 84.8657 13.4982 84.625 13.3096C84.3841 13.1213 83.8414 13.0166 83.001 12.9922L83 12C83.4981 12.024 83.9926 12.0421 84.4834 12.0547C84.9744 12.0674 85.4621 12.0737 85.9453 12.0733C86.8716 12.0733 87.8241 12.061 88.8027 12.0362C89.7802 12.0114 90.2962 11.9992 90.3506 12ZM104.784 18C106.4 18.0001 107.674 18.4771 108.604 19.4317C109.535 20.3864 110 21.6978 110 23.3643V23.5391L101.908 23.6338C101.916 25.2921 102.239 26.5521 102.878 27.4131C103.197 27.8397 103.619 28.181 104.104 28.4063C104.59 28.6315 105.124 28.7339 105.658 28.7041C106.449 28.7241 107.228 28.503 107.889 28.0704C108.541 27.6141 109.038 26.9712 109.313 26.2276L110 26.4395C109.715 27.5141 109.058 28.4555 108.144 29.0977C107.126 29.7331 105.937 30.0452 104.736 29.9942C102.947 29.9941 101.543 29.4686 100.526 28.417C99.5093 27.3652 99.0003 25.9078 99 24.045C99 22.2295 99.5303 20.7681 100.591 19.6612C101.651 18.5542 103.05 18.0003 104.784 18ZM118.654 18.003C119.283 17.9729 119.898 18.1705 120.366 18.5518C120.578 18.7412 120.744 18.9687 120.853 19.2198C120.961 19.4709 121.011 19.7403 120.998 20.0098C121.02 20.3962 120.884 20.7768 120.616 21.0782C120.491 21.2098 120.336 21.3144 120.16 21.3838C119.985 21.4533 119.793 21.4863 119.602 21.4795C119.403 21.4917 119.204 21.466 119.017 21.4043C118.829 21.3426 118.658 21.2454 118.515 21.1202C118.243 20.8275 118.108 20.4506 118.139 20.0694C118.139 19.8696 118.168 19.6706 118.225 19.4776C118.286 19.2743 118.367 19.0764 118.469 18.8868H118.442C117.582 18.8868 116.826 19.4184 116.177 20.4815C115.495 21.6651 115.16 22.9877 115.202 24.3223V27.5C115.202 28.2094 115.349 28.6574 115.643 28.8438C115.936 29.03 116.769 29.1409 118.139 29.1749V30C117.06 29.96 116.167 29.93 115.459 29.9102C114.751 29.8904 114.143 29.8809 113.635 29.8809C113.398 29.8809 113.046 29.8892 112.581 29.9043C112.116 29.9195 111.264 29.9522 110.025 30V29.1749C111.044 29.0949 111.659 28.9749 111.869 28.8155C112.08 28.656 112.184 28.2181 112.185 27.502L112.187 20.6553C112.187 20.0348 112.073 19.6434 111.845 19.4844C111.616 19.3256 111.002 19.2414 110 19.2334V18.3731C110.86 18.3489 111.712 18.3069 112.556 18.2481C113.399 18.1893 114.229 18.1077 115.045 18.003V21.1446C115.374 20.2746 115.912 19.4811 116.619 18.8213C116.882 18.57 117.198 18.368 117.547 18.2276C117.896 18.0872 118.272 18.011 118.654 18.003ZM75.6621 27.004C75.8119 27.0135 75.9593 27.0451 76.0986 27.0977C76.2844 27.1678 76.451 27.2738 76.5879 27.4082C76.8363 27.6698 76.9801 27.9988 76.998 28.3418V28.6377C76.9793 28.9834 76.8355 29.3155 76.5879 29.5811C76.453 29.7184 76.2864 29.8272 76.1006 29.8995C75.9147 29.9716 75.7135 30.0055 75.5117 29.9991C75.3082 30.005 75.1057 29.9706 74.918 29.8985C74.7301 29.8263 74.5607 29.7183 74.4229 29.5811C74.1332 29.2807 73.9828 28.8892 74.002 28.4893C73.985 28.0952 74.138 27.7106 74.4287 27.419C74.5657 27.2825 74.7342 27.1738 74.9209 27.1016C75.1075 27.0296 75.3093 26.9958 75.5117 27.001L75.6621 27.004ZM51.1113 28.9961H53.4307C54.0375 28.982 54.6433 28.9257 55.2432 28.8272C55.7696 28.7284 56.2744 28.5327 56.7344 28.251C57.7202 27.6347 58.4701 26.688 58.8574 25.5694C59.3697 24.0893 59.6097 22.5238 59.5645 20.9532C59.5645 18.1127 59.0279 16.075 57.9541 14.8418C56.8803 13.6087 55.0707 12.9927 52.5264 12.9922H51.1113V28.9961ZM88.002 21.295V28.9717H89.5918C91.1414 28.9717 92.2259 28.6886 92.8457 28.1221C93.4655 27.5555 93.7758 26.585 93.7754 25.211C93.7754 23.807 93.4519 22.8026 92.8057 22.1983C92.1594 21.594 91.0683 21.2923 89.5332 21.293L88.002 21.295ZM125.946 19.0665C125.659 19.0647 125.375 19.1267 125.114 19.2481C124.816 19.3869 124.556 19.5992 124.361 19.8653C123.988 20.395 123.801 21.1964 123.801 22.2696C123.801 23.3767 123.985 24.1969 124.355 24.7295C124.55 24.9984 124.81 25.2134 125.109 25.3536C125.409 25.4936 125.74 25.5542 126.069 25.5303C126.402 25.5528 126.735 25.4906 127.038 25.3497C127.341 25.2087 127.603 24.9933 127.801 24.7237C128.182 24.1877 128.374 23.3778 128.375 22.294C128.375 21.2198 128.183 20.4143 127.801 19.877C127.602 19.6079 127.34 19.3925 127.037 19.252C126.735 19.1117 126.402 19.0497 126.069 19.0723L125.946 19.0665ZM104.83 18.8448C104.423 18.8367 104.02 18.929 103.657 19.1133C103.295 19.2977 102.985 19.5688 102.754 19.9014C102.231 20.6061 101.945 21.576 101.896 22.8116L107.526 22.6709C107.526 21.4272 107.295 20.4783 106.834 19.8243C106.612 19.505 106.311 19.2477 105.96 19.0762C105.609 18.9048 105.22 18.8251 104.83 18.8448ZM138.003 14C138.709 14.0001 139.403 14.1829 140.017 14.5313C140.626 14.8751 141.129 15.3794 141.474 15.9883C141.815 16.5942 141.997 17.278 142 17.9737C142.003 18.6694 141.829 19.3547 141.493 19.9639C141.146 20.5838 140.639 21.099 140.025 21.4571C139.412 21.8151 138.713 22.0029 138.003 22C137.294 22.0032 136.597 21.8169 135.983 21.461C135.37 21.105 134.862 20.5921 134.513 19.9747C134.173 19.3695 133.996 18.6863 134 17.9922L134.009 17.7286C134.045 17.1173 134.223 16.5216 134.529 15.9883C134.874 15.3786 135.379 14.8743 135.989 14.5313C136.603 14.1829 137.297 14 138.003 14ZM138.005 14.6416C137.415 14.6408 136.836 14.7927 136.322 15.0821C135.81 15.3695 135.386 15.7919 135.097 16.3028C134.8 16.8151 134.645 17.3972 134.648 17.9893C134.644 18.5863 134.8 19.1741 135.1 19.6905C135.39 20.2019 135.814 20.6257 136.325 20.9161C136.838 21.2076 137.417 21.3598 138.007 21.3584C138.596 21.357 139.175 21.2013 139.687 20.9073C140.196 20.6159 140.618 20.1932 140.907 19.6827C141.197 19.1671 141.35 18.5848 141.35 17.9932C141.35 17.4018 141.197 16.8201 140.907 16.3047C140.618 15.7961 140.196 15.3759 139.687 15.0879C139.174 14.7968 138.594 14.6426 138.005 14.6416ZM88.002 20.2901H89.7793C91.0333 20.29 91.9329 20.0063 92.4785 19.4395C93.0241 18.8725 93.2973 17.9437 93.2969 16.6534C93.2969 15.315 93.0297 14.3753 92.4961 13.836C91.9624 13.2969 90.9673 13.0275 89.5107 13.0284H88.002V20.2901ZM137.935 15.6622C138.406 15.6339 138.875 15.7561 139.272 16.0118C139.43 16.1288 139.557 16.2833 139.64 16.461C139.723 16.6386 139.76 16.8345 139.749 17.0303C139.744 17.251 139.673 17.4653 139.544 17.6446C139.415 17.8238 139.235 17.9596 139.027 18.0342C139.246 18.1146 139.433 18.265 139.559 18.462C139.684 18.6591 139.741 18.8923 139.721 19.125V19.4522C139.707 19.6772 139.74 19.9032 139.816 20.1153V20.2012H138.999C138.934 19.9784 138.908 19.7455 138.921 19.5137C138.926 19.3186 138.919 19.1233 138.903 18.9288C138.843 18.5868 138.597 18.4089 138.165 18.3946L137.173 18.3926V20.1993H136.379V15.6622H137.935ZM137.953 16.3467H137.176L137.173 17.709H138.053C138.284 17.7135 138.512 17.6483 138.707 17.5225C138.784 17.4726 138.847 17.4042 138.891 17.3233C138.934 17.2423 138.956 17.1515 138.955 17.0596C138.966 16.957 138.951 16.8528 138.913 16.7569C138.875 16.6611 138.814 16.5762 138.736 16.5088C138.497 16.3787 138.225 16.3223 137.953 16.3467Z" fill="#222325"/>
<path d="M148.667 46.833V48H148V46.833H148.667ZM148.667 44.4297H148V42.0264H148.667V44.4297ZM148.667 39.623H148V37.2197H148.667V39.623ZM148.667 34.8154H148V32.4121H148.667V34.8154ZM148.667 30.0088H148V27.6055H148.667V30.0088ZM148.667 25.2021H148V22.7979H148.667V25.2021ZM148.667 20.3945H148V17.9912H148.667V20.3945ZM148.667 15.5879H148V13.1846H148.667V15.5879ZM148.667 10.7803H148V8.37695H148.667V10.7803ZM148.667 5.97363H148V3.57031H148.667V5.97363ZM148.667 1.16699H148V0H148.667V1.16699Z" fill="#222325"/>
<path d="M258.619 21.4639C259.276 21.509 259.906 21.7464 260.428 22.1475C260.971 22.6517 261.296 23.3485 261.334 24.0889H259.807C259.807 23.7022 259.665 23.3287 259.406 23.041C259.112 22.8023 258.738 22.6857 258.36 22.7158C258.139 22.7019 257.917 22.7454 257.717 22.8418C257.517 22.9382 257.345 23.0846 257.218 23.2666C256.926 23.787 256.792 24.3804 256.829 24.9756V25.5391C256.785 26.1503 256.91 26.7626 257.192 27.3066C257.317 27.4927 257.49 27.6421 257.691 27.7402C257.893 27.8383 258.117 27.8818 258.341 27.8652C258.721 27.895 259.099 27.7778 259.396 27.5391C259.652 27.2663 259.795 26.9063 259.796 26.5322L261.323 26.5342C261.313 26.8936 261.229 27.2473 261.077 27.5732C260.925 27.8993 260.709 28.1911 260.44 28.4307C259.85 28.9124 259.102 29.1585 258.341 29.1221C257.918 29.1422 257.496 29.066 257.107 28.8984C256.719 28.731 256.374 28.4771 256.099 28.1562C255.554 27.5118 255.281 26.6274 255.281 25.5039V25.0479C255.268 24.3962 255.397 23.7494 255.658 23.1523C255.884 22.6353 256.259 22.1973 256.734 21.8945C257.306 21.5687 257.962 21.4188 258.619 21.4639ZM194.308 21.4561C194.887 21.4561 195.456 21.6105 195.955 21.9043C196.445 22.214 196.832 22.6616 197.069 23.1904C197.342 23.7977 197.477 24.4584 197.464 25.124V25.459C197.478 26.1238 197.346 26.7835 197.077 27.3916C196.842 27.9184 196.457 28.3641 195.97 28.6729C195.471 28.967 194.902 29.1231 194.323 29.124C193.744 29.1249 193.175 28.9704 192.675 28.6777C192.185 28.3718 191.796 27.9292 191.555 27.4043C191.28 26.8077 191.143 26.1575 191.152 25.501V25.1309C191.138 24.463 191.273 23.7997 191.547 23.1904C191.784 22.6616 192.171 22.2141 192.661 21.9043C193.16 21.6106 193.729 21.4561 194.308 21.4561ZM251.24 21.4561C251.819 21.4561 252.388 21.6106 252.887 21.9043C253.376 22.2142 253.763 22.6618 254 23.1904C254.273 23.7977 254.408 24.4584 254.395 25.124L254.396 25.459C254.411 26.1237 254.279 26.7836 254.01 27.3916C253.775 27.9183 253.389 28.3641 252.902 28.6729C252.403 28.967 251.834 29.1231 251.255 29.124C250.675 29.1249 250.106 28.9704 249.606 28.6777C249.117 28.3718 248.727 27.9291 248.486 27.4043C248.212 26.8078 248.074 26.1575 248.084 25.501V25.1309C248.07 24.463 248.205 23.7997 248.479 23.1904C248.715 22.6614 249.104 22.214 249.594 21.9043C250.093 21.6106 250.661 21.4561 251.24 21.4561ZM160.704 22.7354H158.434V29.1221H156.906V22.7354H154.667V21.4561H160.704V22.7354ZM163.101 24.5625H166.078V21.4561H167.605L167.606 29.1221H166.079V25.8369H163.101V29.1221H161.573V21.4561H163.101V24.5625ZM173.897 22.7354H170.467V24.5625H173.4L173.398 25.7998H170.465V27.8535H173.906V29.1221H168.939V21.4561H173.897V22.7354ZM178.927 24.9316L179.599 23.9785L181.487 21.4561H183.365L180.733 24.8633L183.44 29.1221H181.624L179.72 26.0479L178.926 26.9326V29.1221H177.4V21.4561H178.927V24.9316ZM188.521 26.5107V21.4561H190.043V29.1221H188.516L185.543 24.0781V29.1221H184.016V21.4561H185.543L188.521 26.5107ZM200.614 26.9004L201.836 21.4561H203.129L204.346 26.9111L205.344 21.4561H206.867L205.223 29.1221H203.686L202.479 23.9941L201.271 29.1221H199.733L198.09 21.4561H199.611L200.614 26.9004ZM209.217 27.8535H212.459V29.1221H207.689V21.4561H209.217V27.8535ZM218.291 22.7354H214.861V24.5625H217.795L217.794 25.7998H214.86V27.8535H218.302V29.1221H213.334V21.4561H218.291V22.7354ZM221.479 21.4561C222.092 21.4461 222.697 21.6031 223.228 21.9111C223.745 22.2182 224.162 22.668 224.431 23.2061C224.727 23.7981 224.876 24.4534 224.864 25.1152V25.4678C224.876 26.1259 224.731 26.7778 224.439 27.3682C224.172 27.9051 223.755 28.3532 223.239 28.6582C222.71 28.9673 222.106 29.127 221.493 29.1211L219.198 29.1221V21.4561H221.479ZM229.127 21.4619C229.783 21.4972 230.416 21.7154 230.955 22.0908C231.477 22.5666 231.794 23.2273 231.836 23.9326H230.35C230.317 23.5762 230.157 23.2435 229.899 22.9951C229.626 22.7838 229.285 22.6784 228.94 22.6982C228.709 22.6864 228.477 22.7337 228.27 22.8369C228.062 22.9401 227.884 23.0954 227.754 23.2871C227.447 23.8181 227.304 24.428 227.342 25.04V25.5166C227.299 26.1394 227.454 26.7597 227.785 27.2891C227.935 27.4884 228.133 27.6473 228.359 27.752C228.586 27.8565 228.834 27.9044 229.083 27.8896C229.524 27.9328 229.965 27.7998 230.31 27.5205V26.2324H228.92V25.0986H231.837V28.0771C231.524 28.4342 231.121 28.7008 230.67 28.8486C230.134 29.0369 229.569 29.1292 229.001 29.1221C228.411 29.1352 227.828 28.99 227.313 28.7002C226.825 28.4132 226.435 27.9852 226.193 27.4727C225.918 26.8808 225.78 26.2338 225.789 25.5811V25.0742C225.773 24.4103 225.901 23.7506 226.163 23.1406C226.388 22.6242 226.764 22.1884 227.242 21.8906C227.818 21.5753 228.471 21.4266 229.127 21.4619ZM238.032 22.7354H234.601V24.5625H237.533V25.7998H234.601V27.8535H238.041V29.1221H233.074V21.4561H238.032V22.7354ZM243.814 21.4561C244.428 21.4462 245.032 21.6032 245.562 21.9111C246.08 22.2183 246.498 22.6679 246.767 23.2061C247.063 23.7981 247.211 24.4534 247.199 25.1152V25.4678C247.211 26.126 247.066 26.7779 246.774 27.3682C246.507 27.905 246.09 28.3531 245.574 28.6582C245.045 28.9671 244.442 29.1268 243.829 29.1211L241.533 29.1221V21.4561H243.814ZM194.312 22.7275C194.081 22.7268 193.852 22.7803 193.646 22.8848C193.439 22.9894 193.259 23.1419 193.122 23.3291C192.809 23.8631 192.662 24.478 192.699 25.0957V25.46C192.663 26.0788 192.809 26.6945 193.117 27.2324C193.25 27.4248 193.427 27.5827 193.633 27.6924C193.839 27.802 194.068 27.8609 194.302 27.8633C194.535 27.8656 194.766 27.8116 194.975 27.7061C195.183 27.6004 195.363 27.4456 195.499 27.2559C195.808 26.719 195.953 26.1036 195.917 25.4854V25.1201C195.957 24.4975 195.811 23.8771 195.499 23.3369C195.363 23.149 195.186 22.9956 194.979 22.8896C194.773 22.7837 194.544 22.7283 194.312 22.7275ZM251.244 22.7275C251.013 22.7269 250.784 22.7803 250.577 22.8848C250.37 22.9894 250.191 23.1419 250.054 23.3291C249.741 23.8631 249.594 24.478 249.632 25.0957V25.46C249.596 26.0787 249.741 26.6946 250.049 27.2324C250.181 27.4247 250.358 27.5827 250.564 27.6924C250.771 27.8021 251.001 27.861 251.234 27.8633C251.468 27.8655 251.699 27.8116 251.907 27.7061C252.116 27.6004 252.295 27.4456 252.432 27.2559C252.74 26.719 252.885 26.1035 252.849 25.4854V25.1201C252.889 24.4976 252.744 23.877 252.432 23.3369C252.296 23.1488 252.117 22.9956 251.911 22.8896C251.705 22.7837 251.476 22.7283 251.244 22.7275ZM220.726 27.8535H221.658C221.852 27.8419 222.043 27.7958 222.222 27.7168C222.46 27.6114 222.67 27.4508 222.833 27.248C223.18 26.7392 223.35 26.1298 223.316 25.5146V25.1104C223.36 24.4844 223.196 23.8611 222.85 23.3379C222.686 23.1355 222.476 22.9749 222.238 22.8701C222.06 22.7915 221.869 22.7464 221.675 22.7354H220.726V27.8535ZM243.061 27.8535H243.993C244.187 27.842 244.378 27.7958 244.557 27.7168C244.795 27.6115 245.005 27.4508 245.168 27.248C245.515 26.7391 245.685 26.1298 245.651 25.5146V25.1104C245.695 24.4842 245.531 23.8609 245.184 23.3379C245.02 23.1354 244.81 22.975 244.572 22.8701C244.394 22.7915 244.203 22.7465 244.009 22.7354H243.061V27.8535ZM265.69 18.875C266.22 18.8751 266.74 19.0123 267.2 19.2734C267.657 19.5313 268.036 19.9095 268.294 20.3662C268.55 20.8205 268.686 21.3329 268.688 21.8545C268.691 22.3763 268.561 22.8907 268.309 23.3477C268.048 23.8126 267.667 24.1992 267.207 24.4678C266.747 24.7362 266.223 24.8771 265.69 24.875C265.158 24.8774 264.635 24.7377 264.175 24.4707C263.715 24.2037 263.334 23.8184 263.072 23.3555C262.817 22.9017 262.685 22.3896 262.688 21.8691L262.694 21.6719C262.722 21.2133 262.855 20.7662 263.084 20.3662C263.342 19.9089 263.722 19.5307 264.18 19.2734C264.64 19.0122 265.161 18.875 265.69 18.875ZM265.692 19.3564C265.25 19.3557 264.815 19.4695 264.43 19.6865C264.046 19.9021 263.727 20.2185 263.51 20.6016C263.287 20.9859 263.171 21.423 263.174 21.8672C263.171 22.3149 263.287 22.7553 263.512 23.1426C263.73 23.5262 264.048 23.8437 264.432 24.0615C264.816 24.2802 265.251 24.3946 265.693 24.3936C266.136 24.3925 266.57 24.2761 266.953 24.0557C267.335 23.8371 267.652 23.5197 267.869 23.1367C268.087 22.7501 268.201 22.3138 268.201 21.8701C268.201 21.4265 268.087 20.9901 267.869 20.6035C267.652 20.222 267.335 19.9064 266.953 19.6904C266.569 19.4723 266.134 19.3572 265.692 19.3564ZM265.639 20.1211C265.993 20.0998 266.344 20.192 266.643 20.3838C266.761 20.4716 266.856 20.5874 266.918 20.7207C266.98 20.8539 267.008 21.0006 267 21.1475C266.997 21.313 266.943 21.4739 266.847 21.6084C266.75 21.7428 266.615 21.8444 266.459 21.9004C266.623 21.9608 266.763 22.0739 266.857 22.2217C266.928 22.3324 266.969 22.4583 266.979 22.5879V22.9639C266.969 23.1326 266.994 23.302 267.051 23.4609V23.5254H266.438C266.389 23.3585 266.369 23.1844 266.379 23.0107C266.383 22.8644 266.378 22.7172 266.366 22.5713C266.321 22.3149 266.136 22.1816 265.812 22.1709L265.068 22.1699V23.5244H264.472V20.1211H265.639ZM265.653 20.6348H265.069L265.068 21.6562H265.728C265.901 21.6596 266.072 21.6109 266.218 21.5166C266.276 21.4792 266.324 21.428 266.356 21.3672C266.389 21.3066 266.405 21.2386 266.404 21.1699C266.412 21.0931 266.401 21.0152 266.373 20.9434C266.345 20.8714 266.299 20.8074 266.24 20.7568C266.061 20.6593 265.857 20.6166 265.653 20.6348Z" fill="#222325"/>
</svg>
